<svg width="128" height="128" viewBox="0 0 128 128" fill="none" xmlns="http://www.w3.org/2000/svg">
<rect width="128" height="128" rx="64" fill="#0067F5"/>
<path d="M63.8968 114.019C61.0208 114.023 58.2086 113.156 55.8159 111.529C53.4232 109.902 51.5575 107.588 50.4548 104.88C49.3521 102.172 49.062 99.1909 49.6212 96.3146C50.1804 93.4382 51.5638 90.7956 53.5963 88.721C55.6288 86.6465 58.2192 85.2332 61.0396 84.66C63.86 84.0868 66.7839 84.3794 69.4412 85.5008C72.0985 86.6223 74.3699 88.5221 75.968 90.96C77.566 93.398 78.4191 96.2644 78.4191 99.1967C78.4191 103.125 76.8895 106.893 74.1665 109.672C71.4435 112.452 67.7497 114.015 63.8968 114.019ZM63.8968 91.7619C62.4546 91.7619 61.0448 92.1979 59.8456 93.0149C58.6465 93.8318 57.7119 94.993 57.16 96.3515C56.6081 97.7101 56.4637 99.205 56.745 100.647C57.0264 102.089 57.7209 103.414 58.7406 104.454C59.7604 105.494 61.0597 106.202 62.4742 106.489C63.8887 106.776 65.3548 106.628 66.6872 106.066C68.0196 105.503 69.1585 104.55 69.9597 103.327C70.761 102.105 71.1886 100.667 71.1886 99.1967C71.1886 97.2249 70.4204 95.3338 69.0529 93.9395C67.6854 92.5452 65.8307 91.7619 63.8968 91.7619Z" fill="white"/>
<path d="M102.714 84.1312H33.7412L68.2662 23.2752L64.0446 15.8403L21.1992 91.5034H106.89L102.714 84.1312Z" fill="white"/>
<path d="M95.6983 71.8227H56.8105L61.1112 64.4505H83.1716L68.2348 38.0764L68.2195 38.0295L72.395 30.6572L95.6983 71.8227Z" fill="white"/>
<path d="M72.7203 44.6555L49.4984 85.1977H41.1113L68.5294 37.2676L72.7203 44.6555Z" fill="white"/>
</svg>
